<svg fill="none" stroke="#268574" xmlns="http://www.w3.org/2000/svg" width="152" height="152" viewBox="0 0 152 152">
<path   d="M73.2847 11.1735C74.8909 9.95804 77.1092 9.95804 78.7155 11.1735L81.1884 13.0448C82.7507 14.227 84.8239 14.4889 86.6311 13.7324L89.4917 12.5349C91.3497 11.757 93.4984 12.3087 94.7519 13.8855L96.6817 16.313C97.9009 17.8465 99.8439 18.6158 101.782 18.3325L104.851 17.884C106.844 17.5927 108.788 18.6613 109.61 20.5003L110.876 23.3315C111.675 25.1201 113.366 26.3483 115.314 26.556L118.397 26.8847C120.4 27.0982 122.018 28.6168 122.356 30.6024L122.878 33.6593C123.208 35.5906 124.54 37.2007 126.375 37.8863L129.28 38.9716C131.167 39.6765 132.356 41.5495 132.19 43.557L131.935 46.6476C131.774 48.6001 132.664 50.4909 134.271 51.6114L136.815 53.3851C138.467 54.5371 139.153 56.6468 138.493 58.5501L137.477 61.4802C136.836 63.3314 137.227 65.384 138.505 66.869L140.528 69.2195C141.842 70.7463 141.981 72.9602 140.869 74.6396L139.157 77.2252C138.075 78.8586 137.944 80.9442 138.812 82.7003L140.187 85.4801C141.08 87.2856 140.664 89.4646 139.17 90.8147L136.868 92.8931C135.414 94.2062 134.768 96.1936 135.173 98.1106L135.813 101.145C136.229 103.116 135.284 105.123 133.501 106.059L130.755 107.5C129.02 108.41 127.9 110.174 127.815 112.132L127.681 115.23C127.593 117.242 126.179 118.951 124.219 119.414L121.201 120.127C119.294 120.577 117.771 122.008 117.202 123.882L116.301 126.85C115.716 128.777 113.921 130.081 111.907 130.042L108.807 129.982C106.848 129.943 105.017 130.95 103.999 132.624L102.389 135.275C101.343 136.996 99.2805 137.813 97.3396 137.274L94.3515 136.444C92.4637 135.92 90.4397 136.44 89.0379 137.809L86.819 139.975C85.3778 141.382 83.1769 141.66 81.431 140.656L78.743 139.109C77.0449 138.132 74.9552 138.132 73.2571 139.109L70.5691 140.656C68.8232 141.66 66.6224 141.382 65.1812 139.975L62.9623 137.809C61.5605 136.44 59.5365 135.92 57.6487 136.444L54.6605 137.274C52.7197 137.813 50.6571 136.996 49.6111 135.275L48.0007 132.624C46.9833 130.95 45.1521 129.943 43.1934 129.982L40.0928 130.042C38.0789 130.081 36.2842 128.777 35.6992 126.85L34.7985 123.882C34.2294 122.008 32.7061 120.577 30.7994 120.127L27.7812 119.414C25.8208 118.951 24.4068 117.242 24.3195 115.23L24.1851 112.132C24.1001 110.174 22.9804 108.41 21.2455 107.5L18.4994 106.059C16.7157 105.123 15.7712 103.116 16.1871 101.145L16.8274 98.1106C17.2319 96.1936 16.5861 94.2062 15.1321 92.8931L12.8306 90.8147C11.3357 89.4646 10.92 87.2856 11.813 85.4801L13.1877 82.7003C14.0563 80.9442 13.925 78.8586 12.8433 77.2252L11.1309 74.6396C10.0187 72.9602 10.158 70.7463 11.4719 69.2195L13.4948 66.869C14.7728 65.384 15.1644 63.3314 14.5228 61.4802L13.5072 58.5501C12.8476 56.6468 13.5331 54.5371 15.1855 53.3851L17.7294 51.6114C19.3365 50.4909 20.2262 48.6001 20.0651 46.6476L19.8102 43.557C19.6446 41.5495 20.8333 39.6765 22.7202 38.9716L25.6252 37.8863C27.4605 37.2007 28.7925 35.5906 29.1221 33.6593L29.6438 30.6024C29.9826 28.6168 31.5997 27.0982 33.6027 26.8847L36.6864 26.556C38.6345 26.3483 40.3251 25.1201 41.1246 23.3315L42.3901 20.5003C43.2121 18.6613 45.1561 17.5927 47.1492 17.884L50.2177 18.3325C52.1563 18.6158 54.0992 17.8465 55.3184 16.313L57.2483 13.8855C58.5018 12.3087 60.6504 11.757 62.5085 12.5349L65.3691 13.7324C67.1763 14.4889 69.2495 14.227 70.8117 13.0448L73.2847 11.1735Z"></path>
<path  d="M73.2846 2.68181C74.8908 1.46634 77.1092 1.46634 78.7154 2.68181L82.1675 5.29405C83.7297 6.47625 85.8029 6.73816 87.6101 5.98162L91.6034 4.30995C93.4614 3.53212 95.6101 4.08379 96.8636 5.66053L99.5576 9.0492C100.777 10.5828 102.72 11.352 104.658 11.0687L108.942 10.4426C110.935 10.1513 112.879 11.22 113.701 13.0589L115.467 17.0111C116.267 18.7997 117.958 20.028 119.906 20.2357L124.21 20.6945C126.213 20.908 127.83 22.4266 128.169 24.4122L128.897 28.6795C129.227 30.6107 130.559 32.2209 132.394 32.9065L136.45 34.4215C138.337 35.1264 139.525 36.9994 139.36 39.0068L139.004 43.3212C138.843 45.2738 139.732 47.1646 141.339 48.285L144.891 50.7609C146.543 51.913 147.228 54.0227 146.569 55.9259L145.151 60.0163C144.51 61.8674 144.901 63.9201 146.179 65.405L149.003 68.6863C150.317 70.213 150.456 72.427 149.344 74.1064L146.954 77.7156C145.872 79.3491 145.741 81.4346 146.609 83.1908L148.528 87.0712C149.421 88.8767 149.006 91.0557 147.511 92.4058L144.298 95.3072C142.844 96.6203 142.198 98.6077 142.603 100.525L143.496 104.76C143.912 106.731 142.968 108.738 141.184 109.674L137.351 111.686C135.616 112.596 134.496 114.36 134.411 116.318L134.223 120.643C134.136 122.655 132.722 124.364 130.762 124.827L126.549 125.822C124.642 126.272 123.119 127.702 122.549 129.577L121.292 133.72C120.707 135.647 118.912 136.951 116.899 136.912L112.57 136.827C110.612 136.789 108.78 137.796 107.763 139.47L105.515 143.17C104.469 144.891 102.406 145.708 100.466 145.169L96.2942 144.011C94.4065 143.487 92.3824 144.007 90.9806 145.375L87.8832 148.4C86.442 149.807 84.2411 150.085 82.4952 149.08L78.743 146.921C77.0448 145.944 74.9552 145.944 73.257 146.921L69.5048 149.08C67.7589 150.085 65.558 149.807 64.1168 148.4L61.0194 145.375C59.6176 144.007 57.5935 143.487 55.7058 144.011L51.5345 145.169C49.5936 145.708 47.5311 144.891 46.4851 143.17L44.237 139.47C43.2197 137.796 41.3885 136.789 39.4297 136.827L35.1015 136.912C33.0875 136.951 31.2929 135.647 30.7078 133.72L29.4505 129.577C28.8815 127.702 27.3582 126.272 25.4514 125.822L21.2382 124.827C19.2778 124.364 17.8638 122.655 17.7765 120.643L17.5888 116.318C17.5039 114.36 16.3842 112.596 14.6493 111.686L10.8159 109.674C9.03219 108.738 8.08767 106.731 8.50356 104.76L9.39736 100.525C9.80187 98.6077 9.15612 96.6203 7.70212 95.3072L4.4893 92.4058C2.99437 91.0557 2.5787 88.8767 3.47166 87.0712L5.39078 83.1907C6.2593 81.4346 6.12809 79.3491 5.04632 77.7156L2.65599 74.1064C1.54378 72.427 1.68306 70.213 2.99699 68.6863L5.82083 65.405C7.0988 63.9201 7.49037 61.8674 6.8488 60.0163L5.43116 55.9259C4.77153 54.0227 5.45703 51.913 7.10937 50.7609L10.6605 48.285C12.2676 47.1646 13.1574 45.2738 12.9963 43.3212L12.6404 39.0068C12.4748 36.9994 13.6635 35.1264 15.5504 34.4215L19.6057 32.9065C21.441 32.2209 22.773 30.6108 23.1026 28.6795L23.8308 24.4122C24.1697 22.4266 25.7867 20.908 27.7897 20.6945L32.0943 20.2357C34.0425 20.028 35.7331 18.7997 36.5326 17.0111L38.2992 13.0589C39.1212 11.22 41.0651 10.1513 43.0582 10.4426L47.3417 11.0687C49.2803 11.352 51.2232 10.5828 52.4424 9.0492L55.1364 5.66053C56.3899 4.08379 58.5386 3.53212 60.3966 4.30995L64.3899 5.98162C66.1971 6.73816 68.2702 6.47625 69.8325 5.29405L73.2846 2.68181Z"></path>
</svg>